<svg width="32" height="32" viewBox="0 0 32 32" fill="none" xmlns="http://www.w3.org/2000/svg">
<rect width="32" height="32" rx="16" fill="white"/>
<path d="M6.61228 11.8671C6.04449 12.2716 5.7117 13.1281 6.33902 14.1522C6.96634 15.1763 15.9288 22.0891 16.2573 22.281C16.5859 22.4731 16.9147 22.5051 17.7509 21.8331C18.5875 21.1609 25.5768 15.9104 25.7572 15.7525C26.0442 15.5012 26.1157 14.8883 25.7572 14.6002C25.7572 14.6002 17.2898 20.9368 17.0125 21.193C16.7354 21.449 16.3041 21.033 16.385 20.489C16.4664 19.9448 16.5262 19.8807 17.6017 19.0487C18.6772 18.2165 24.7748 13.5952 25.0514 13.3909C25.3647 13.1594 25.3723 12.7505 24.8591 12.389C24.1457 11.8862 16.4359 6.40315 16.1779 6.21121C15.9193 6.01911 15.5614 5.84458 15.0237 6.22862C14.4861 6.61266 7.65541 11.1239 6.61228 11.8671Z" fill="#316DC2"/>
<path d="M16.2573 22.9555C16.0416 22.8294 12.1093 19.8103 9.25303 17.4595V22.3609C9.25082 25.9388 19.3313 27.8505 22.6708 23.4521V18.7675C20.6193 20.3176 18.2196 22.131 17.7509 22.5074C16.9147 23.1795 16.5859 23.1475 16.2573 22.9555Z" fill="#316DC2"/>
<path d="M20.523 17.5812C20.523 17.5812 22.0218 18.3347 22.1284 21.367L21.4023 21.1669L20.8213 22.4009C20.5756 19.0805 19.2372 18.599 19.2372 18.599L20.523 17.5812Z" fill="#98B8E6"/>
</svg>
